<svg width="50" height="32" viewBox="0 0 50 32" fill="none" xmlns="http://www.w3.org/2000/svg">
<path d="M24.7842 10.8688C24.7842 11.9568 28.0242 12.5008 30.8322 12.5008C31.5882 12.5008 32.2902 12.4464 32.9382 12.392C36.1242 11.9568 36.8262 10.5968 36.8262 10.5968C34.5042 9.78078 33.1002 7.27838 33.1002 7.27838C33.1002 7.27838 24.7842 9.50878 24.7842 10.8688Z" fill="black"/>
<path d="M24.7302 7.98562C25.1082 5.91842 24.1362 3.85122 22.3542 2.81762L19.4382 1.13122C18.8442 0.750419 18.1422 0.587219 17.4402 0.587219C17.3322 0.587219 17.2242 0.587219 17.0622 0.587219C15.8742 0.696019 14.0922 1.24002 12.1482 2.98082C8.74617 6.02722 -1.89183 19.6816 1.29417 26.7536C1.61817 27.4608 2.15817 28.1136 2.86017 28.4944L5.12817 30.3984C5.93817 30.888 6.91017 31.16 7.88217 31.16C8.85417 31.16 9.77217 30.9424 10.5822 30.4528C12.9582 28.984 16.1442 26.0464 19.4382 20.3888C22.7322 14.6224 24.2442 10.6512 24.7302 7.98562Z" fill="black"/>
<path d="M32.0738 18.7024C27.8078 18.7024 24.6758 18.1584 22.3538 17.3968C22.1378 17.7776 21.9758 18.1584 21.7598 18.5392C24.1358 19.3008 27.4838 19.8992 32.1278 19.8448C46.5458 19.6272 48.7058 14.568 48.5978 13.48C48.4898 12.392 47.9498 12.7184 47.9498 12.7184C47.9498 12.7184 46.7078 18.7024 32.0738 18.7024Z" fill="black"/>
<path d="M29.3208 7.22401C31.1568 6.62561 32.7768 6.19041 32.8308 6.13601L33.6948 5.91841L34.1268 6.68001C34.1268 6.68001 34.2348 6.84321 34.4508 7.11521C42.2808 7.44161 44.1708 9.72641 44.1708 9.72641C44.1708 9.72641 44.6568 8.69281 43.4148 7.60481C42.0108 6.35361 38.5548 4.93921 32.4528 4.93921C29.7528 4.93921 27.5388 5.21121 25.7568 5.59201C25.9188 6.24481 25.9728 6.89761 25.9188 7.60481C26.8908 7.44161 28.0248 7.27841 29.3208 7.22401Z" fill="black"/>
<path d="M32.0738 3.90559C39.5258 3.90559 45.5198 6.19039 45.5198 9.01919C45.5198 11.848 39.4718 14.1328 32.0738 14.1328C29.1578 14.1328 26.5118 13.8064 24.2978 13.208C23.8658 14.1872 23.3798 15.2752 22.8398 16.4176C25.0538 17.1248 28.0778 17.6144 32.0738 17.6144C46.2758 17.6144 47.7338 11.7936 47.7338 11.7936L47.9498 9.99839C48.0038 9.78079 48.0038 9.50879 48.0038 9.29119C48.0038 5.37439 40.8758 2.16479 32.0738 2.16479C29.3198 2.16479 26.7278 2.49119 24.4598 3.03519C24.8918 3.47039 25.2158 4.01439 25.4318 4.55839C27.3758 4.17759 29.6438 3.90559 32.0738 3.90559Z" fill="black"/>
<path d="M48.3289 15.6016C48.2209 15.7104 48.1669 15.8192 48.0589 15.928L47.8969 16.0912C47.7889 16.2 47.6809 16.3088 47.5729 16.4176C46.2769 17.6688 42.0649 20.4432 32.1289 20.4432C27.1069 20.4432 23.6509 19.8448 21.3829 19.0832C21.0589 19.6816 20.7349 20.28 20.3569 20.8784C18.9529 23.3264 17.5489 25.2304 16.2529 26.7536C16.7389 27.4064 17.2789 27.9504 17.9809 28.3312C20.3569 29.8544 24.5149 31.4864 31.4269 31.6496C31.5889 31.6496 31.7509 31.6496 31.9129 31.6496C32.0749 31.6496 32.2369 31.6496 32.3989 31.6496C39.3109 31.4864 43.4689 29.8544 45.8449 28.3312C47.5729 27.2432 48.7069 25.3392 48.8689 23.272L49.2469 18.104C49.3009 16.3088 48.3289 15.6016 48.3289 15.6016Z" fill="black"/>
</svg>
