<svg width="38" height="40" viewBox="0 0 38 40" fill="none" xmlns="http://www.w3.org/2000/svg">
<path fill-rule="evenodd" clip-rule="evenodd" d="M18.7163 0.0722656C21.326 4.4128 22.8667 9.76182 22.8667 15.545C22.8667 21.3286 21.326 26.6772 18.7163 31.0182C16.1062 26.6772 14.5654 21.3286 14.5654 15.545C14.5654 9.76182 16.1062 4.4128 18.7163 0.0722656Z" fill="black"/>
<path fill-rule="evenodd" clip-rule="evenodd" d="M1.91309 29.7845C4.50041 28.2152 7.6885 27.2889 11.1358 27.2889C14.5831 27.2889 17.7716 28.2152 20.359 29.7845C17.7716 31.3533 14.5831 32.2795 11.1358 32.2795C7.6885 32.2795 4.50041 31.3533 1.91309 29.7845Z" fill="black"/>
<path fill-rule="evenodd" clip-rule="evenodd" d="M10.1318 37.4953C10.653 35.3764 11.8048 33.2777 13.5573 31.5177C15.3102 29.7578 17.4001 28.6007 19.5095 28.0773C18.9883 30.1961 17.8366 32.2949 16.0836 34.0548C14.3311 35.8148 12.2413 36.9719 10.1318 37.4953Z" fill="black"/>
<path fill-rule="evenodd" clip-rule="evenodd" d="M27.3005 37.4953C26.7793 35.3764 25.6276 33.2777 23.8751 31.5177C22.1226 29.7578 20.0327 28.6007 17.9229 28.0773C18.444 30.1961 19.5958 32.2949 21.3487 34.0548C23.1012 35.8148 25.1911 36.9719 27.3005 37.4953Z" fill="black"/>
<path fill-rule="evenodd" clip-rule="evenodd" d="M17.0732 29.7845C19.661 28.2152 22.8491 27.2889 26.2964 27.2889C29.7437 27.2889 32.9318 28.2152 35.5191 29.7845C32.9318 31.3533 29.7437 32.2795 26.2964 32.2795C22.8491 32.2795 19.661 31.3533 17.0732 29.7845Z" fill="black"/>
<path fill-rule="evenodd" clip-rule="evenodd" d="M37.4049 13.1187C35.9866 17.1923 33.3294 21.1095 29.5531 24.2471C25.7764 27.3847 21.4477 29.2718 17.1973 29.9083C18.6156 25.8346 21.2723 21.9175 25.0491 18.7798C28.8253 15.6422 33.1545 13.7547 37.4049 13.1187Z" fill="black"/>
<path fill-rule="evenodd" clip-rule="evenodd" d="M0.0273438 13.1187C1.44572 17.1923 4.10285 21.1095 7.87914 24.2471C11.6559 27.3847 15.9845 29.2718 20.235 29.9083C18.8166 25.8346 16.16 21.9175 12.3832 18.7798C8.60694 15.6422 4.27782 13.7547 0.0273438 13.1187Z" fill="black"/>
<path d="M19.5168 29.5194H17.916V39.151H19.5168V29.5194Z" fill="black"/>
</svg>
